{"title":"Blood.Widow.2014.BDRip.x264-MenaceIISociety","uid":12290783,"size":562818724,"categoryP":"video","categoryS":"movies","magnet":"?xt=urn:btih:5ab8a1eca92954033c673f6da14f0641d3a2ea6a&amp;dn=Blood.Widow.2014.BDRip.x264-MenaceIISociety&amp;tr=udp%3A%2F%2Ftracker.openbittorrent.com%3A80&amp;tr=udp%3A%2F%2Fopen.demonii.com%3A1337&amp;tr=udp%3A%2F%2Ftracker.coppersurfer.tk%3A6969&amp;tr=udp%3A%2F%2Fexodus.desync.com%3A6969","seeders":0,"leechers":0,"uploader":"TvTeam","files":4,"time":1440544926,"description":"------------------------------------------------------------------------\n\n &lt;a href=&quot; https://www.torrenting.com&quot; rel=&quot;nofollow&quot; target=&quot;_NEW&quot;&gt; https://www.torrenting.com&lt;/a&gt;\n\nSign up is OPEN - for time being. Come and have fun\n\n.......................................................................................................................[center][img]http://s2.postimg.org/pj2kohajt/8nglng4s.jpg[/img]\n\nBlood.Widow.2014.BDRip.x264-MenaceIISociety &lt;a href=&quot;\nhttp://www.imdb.com/title/tt2909124/&quot; rel=&quot;nofollow&quot; target=&quot;_NEW&quot;&gt;\nhttp://www.imdb.com/title/tt2909124/&lt;/a&gt;\n\nSource: COMPLETE.BLURAY-MOViEiT [THANKS]\n\nGeneral\nComplete name                            : Blood.Widow.2014.BDRip.x264-MenaceIISociety.mp4\nFormat                                   : MPEG-4\nFormat profile                           : Base Media\nCodec ID                                 : isom\nFile size                                : 524 MiB\nDuration                                 : 1h 22mn\nOverall bit rate mode                    : Variable\nOverall bit rate                         : 886 Kbps\nEncoded date                             : UTC 2015-08-25 20:24:36\nTagged date                              : UTC 2015-08-25 20:24:36\n\nVideo\nID                                       : 1\nFormat                                   : AVC\nFormat/Info                              : Advanced Video Codec\nFormat profile                           : &lt;a class=&quot;__cf_email__&quot; href=&quot;/cdn-cgi/l/email-protection&quot; data-cfemail=&quot;2860414f4068641c0619&quot;&gt;[email&amp;#160;protected]&lt;/a&gt;&lt;script data-cfhash='f9e31' type=&quot;text/javascript&quot;&gt;\n/* &lt;![CDATA[ */!function(){try{var t=&quot;currentScript&quot;in document?document.currentScript:function(){for(var t=document.getElementsByTagName(&quot;script&quot;),e=t.length;e--;)if(t[e].getAttribute(&quot;data-cfhash&quot;))return t[e]}();if(t&amp;&amp;t.previousSibling){var e,r,n,i,c=t.previousSibling,a=c.getAttribute(&quot;data-cfemail&quot;);if(a){for(e=&quot;&quot;,r=parseInt(a.substr(0,2),16),n=2;a.length-n;n+=2)i=parseInt(a.substr(n,2),16)^r,e+=String.fromCharCode(i);e=document.createTextNode(e),c.parentNode.replaceChild(e,c)}t.parentNode.removeChild(t);}}catch(u){}}()/* ]]&gt; */&lt;/script&gt;\nFormat settings, CABAC                   : Yes\nFormat settings, ReFrames                : 3 frames\nCodec ID                                 : avc1\nCodec ID/Info                            : Advanced Video Coding\nDuration                                 : 1h 22mn\nBit rate mode                            : Variable\nBit rate                                 : 748 Kbps\nMaximum bit rate                         : 40.0 Mbps\nWidth                                    : 720 pixels\nHeight                                   : 400 pixels\nDisplay aspect ratio                     : 16:9\nFrame rate mode                          : Constant\nFrame rate                               : 23.976 fps\nColor space                              : YUV\nChroma subsampling                       : 4:2:0\nBit depth                                : 8 bits\nScan type                                : Progressive\nBits/(Pixel*Frame)                       : 0.108\nStream size                              : 442 MiB (84%)\nWriting library                          : x264 core 148 r2579 73ae2d1\n\nAudio\nID                                       : 2\nFormat                                   : AAC\nFormat/Info                              : Advanced Audio Codec\nFormat profile                           : LC\nCodec ID                                 : 40\nDuration                                 : 1h 22mn\nBit rate mode                            : Variable\nBit rate                                 : 132 Kbps\nMaximum bit rate                         : 174 Kbps\nChannel(s)                               : 2 channels\nChannel positions                        : Front: L R\nSampling rate                            : 48.0 KHz\nCompression mode                         : Lossy\nStream size                              : 79.5 MiB (15%)\nLanguage                                 : English\nEncoded date                             : UTC 2015-08-25 19:18:33\nTagged date                              : UTC 2015-08-25 20:26:37 \n\n[img]http://s16.postimg.org/lcwk9iupx/vlcsnap_2015_08_25_22h28m55s369.jpg[/img]\n[img]http://s16.postimg.org/a9cy3x9fp/vlcsnap_2015_08_25_22h29m04s127.jpg[/img]\n[img]http://s16.postimg.org/qlrl7ed51/vlcsnap_2015_08_25_22h29m12s811.jpg[/img]\n[img]http://s16.postimg.org/b1k7gv30l/vlcsnap_2015_08_25_22h29m24s004.jpg[/img] \n \n[img]http://s17.postimg.org/r1iiyw8yn/Untitled_1.png[/img][/center]","torrent":{"xt":"urn:btih:5ab8a1eca92954033c673f6da14f0641d3a2ea6a","amp;dn":"Blood.Widow.2014.BDRip.x264-MenaceIISociety","amp;tr":["udp%3A%2F%2Ftracker.openbittorrent.com%3A80","udp%3A%2F%2Fopen.demonii.com%3A1337","udp%3A%2F%2Ftracker.coppersurfer.tk%3A6969","udp%3A%2F%2Fexodus.desync.com%3A6969"],"infoHash":"5ab8a1eca92954033c673f6da14f0641d3a2ea6a","infoHashBuffer":{"type":"Buffer","data":[90,184,161,236,169,41,84,3,60,103,63,109,161,79,6,65,211,162,234,106]},"announce":[],"urlList":[]}}